# xmcd
#
# Track frame offsets:
#	150
#	10318
#	25160
#	36704
#	49696
#	58888
#	72501
#	82461
#	94903
#	106477
#	117912
#	132678
#	145839
#	159414
#	171275
#	183289
#	197678
#	210092
#
# Disc length: 2967 seconds
#
# Revision: 1
# Processed by: cddbd v1.5.2PL0 Copyright (c) Steve Scherf et al.
# Submitted via: audiograbber 1.83.01
#
DISCID=0e0b9512
DTITLE=Various Artist - Soul Train CD4
DYEAR=1998
DGENRE=Soul
TTITLE0=Aretha Franklin - Think
TTITLE1=Lobo - I'd Love You To Want Me
TTITLE2=Jimmy Charles - A Million To One
TTITLE3=Jackie Wilson - (I Can Feel Those Vibrations) This Love Is Real
TTITLE4=Galdies Knight and The Pips - Every Beat Of My Heart
TTITLE5=Harold Melvin and The Blue Notes - Satisfaction Guaranteed
TTITLE6=The Chiffons - Sweet Talkin' Guy
TTITLE7=The Platters - Only You (And You Alone)
TTITLE8=The Toys - A Lovers Concerto
TTITLE9=Clyde McPhatter - A Lover's Question
TTITLE10=The Detroid Emeralds - Feel The Need In Me
TTITLE11=Percy Sledge - Take Time To Know Her
TTITLE12=Paul Young and The Q-Tips - Love Hurts
TTITLE13=Jack Scott - My True Love
TTITLE14=The Tymes - You Little Trustmaker
TTITLE15=Betty Harris - Cry To Me
TTITLE16=Martha and The Vandellas - Heatwave
TTITLE17=Climax - Precious And Few
EXTD=
EXTT0=
EXTT1=
EXTT2=
EXTT3=
EXTT4=
EXTT5=
EXTT6=
EXTT7=
EXTT8=
EXTT9=
EXTT10=
EXTT11=
EXTT12=
EXTT13=
EXTT14=
EXTT15=
EXTT16=
EXTT17=
PLAYORDER=
